<svg width="740" height="1345" viewBox="0 0 740 1345" fill="none" xmlns="http://www.w3.org/2000/svg">
<g filter="url(#filter0_b_2204_131)">
<path fill-rule="evenodd" clip-rule="evenodd" d="M411.174 24C409.426 24 408.552 24 407.722 23.9423C401.527 23.5119 395.74 20.6969 391.577 16.0889C391.018 15.471 390.479 14.7836 389.4 13.4088C386.785 10.0765 385.478 8.41043 384.277 7.2536C374.982 -1.70036 360.27 -1.70036 350.976 7.2536C349.775 8.41043 348.467 10.0765 345.852 13.4088C344.774 14.7836 344.234 15.471 343.676 16.0889C339.513 20.6969 333.726 23.5119 327.531 23.9423C326.7 24 325.826 24 324.079 24H48C25.3726 24 14.0589 24 7.02944 31.0294C0 38.0589 0 49.3726 0 72.0001V1296.64C0 1319.27 0 1330.58 7.02944 1337.61C14.0589 1344.64 25.3726 1344.64 48 1344.64H692C714.627 1344.64 725.941 1344.64 732.971 1337.61C740 1330.58 740 1319.27 740 1296.64V72C740 49.3726 740 38.0589 732.971 31.0294C725.941 24 714.627 24 692 24H411.174Z" fill="#222125" fill-opacity="0.8"/>
</g>
<defs>
<filter id="filter0_b_2204_131" x="-10" y="-9.46187" width="760" height="1364.1" filterUnits="userSpaceOnUse" color-interpolation-filters="sRGB">
<feFlood flood-opacity="0" result="BackgroundImageFix"/>
<feGaussianBlur in="BackgroundImageFix" stdDeviation="5"/>
<feComposite in2="SourceAlpha" operator="in" result="effect1_backgroundBlur_2204_131"/>
<feBlend mode="normal" in="SourceGraphic" in2="effect1_backgroundBlur_2204_131" result="shape"/>
</filter>
</defs>
</svg>
